<svg width="20" height="20" viewBox="10 10 20 20" fill="none" xmlns="http://www.w3.org/2000/svg">
<path d="M18.7256 12.2832C18.4644 12.6691 18.2488 13.0886 18.0859 13.5332H13.2588C12.9083 13.5333 12.6241 13.8175 12.624 14.168V28.418L16.8115 24.709C17.3311 24.2489 18.1123 24.248 18.6328 24.707L22.8447 28.4219V21.2695C23.067 21.2955 23.2932 21.3105 23.5225 21.3105C23.7156 21.3105 23.9065 21.3007 24.0947 21.2822V28.6992C24.0945 29.6676 22.952 30.1834 22.2256 29.543L17.8057 25.6445C17.7585 25.6031 17.6878 25.6031 17.6406 25.6445L13.2451 29.5381C12.5193 30.1808 11.3743 29.6658 11.374 28.6963V14.168C11.3741 13.1271 12.2179 12.2833 13.2588 12.2832H18.7256ZM23.6553 10.1738C26.4008 10.174 28.627 12.3999 28.627 15.1455C28.6269 17.891 26.4008 20.117 23.6553 20.1172C20.9097 20.1172 18.6837 17.8911 18.6836 15.1455C18.6836 12.3998 20.9096 10.1738 23.6553 10.1738ZM23.6553 11.915C23.3101 11.915 23.0303 12.1949 23.0303 12.54V14.5205H21.0498C20.7046 14.5205 20.4248 14.8003 20.4248 15.1455C20.4248 15.4907 20.7046 15.7705 21.0498 15.7705H23.0303V17.751C23.0304 18.0961 23.3102 18.376 23.6553 18.376C24.0003 18.3759 24.2802 18.096 24.2803 17.751V15.7705H26.2607C26.6058 15.7704 26.8857 15.4906 26.8857 15.1455C26.8857 14.8004 26.6058 14.5207 26.2607 14.5205H24.2803V12.54C24.2803 12.1949 24.0004 11.9151 23.6553 11.915Z" fill="#007C88"/>
</svg>
