<svg width="15" height="20" viewBox="0 0 15 20" fill="none" xmlns="http://www.w3.org/2000/svg">
<g opacity="0.8">
<path d="M1.07715 4.44262V18.2917C1.07715 18.7227 1.58606 18.9518 1.90869 18.666L6.07394 14.9762C6.35734 14.7252 6.78341 14.7247 7.06736 14.9751L11.2565 18.6699C11.5794 18.9547 12.0873 18.7254 12.0873 18.2949V4.44262C12.0873 3.74674 11.5231 3.18262 10.8273 3.18262H2.33715C1.64127 3.18262 1.07715 3.74674 1.07715 4.44262Z" fill="#414141" stroke="#414141" stroke-width="1.25" stroke-linecap="square" stroke-linejoin="round"/>
<path fill-rule="evenodd" clip-rule="evenodd" d="M13.8401 15.6664L14.0932 15.8897C14.4161 16.1744 14.924 15.9452 14.924 15.5147V2.40234C14.924 1.29777 14.0285 0.402344 12.924 0.402344H5.17385C4.49649 0.402344 3.94397 0.936836 3.91504 1.60707C3.97221 1.59913 4.0306 1.59503 4.08995 1.59503H12.7401C13.3476 1.59503 13.8401 2.08751 13.8401 2.69503V15.6664Z" fill="#414141"/>
</g>
</svg>
