<svg width="44" height="44" viewBox="0 0 44 44" fill="none" xmlns="http://www.w3.org/2000/svg">
<path d="M30.3333 22.8337C30.3333 27.8963 26.2293 32.0003 21.1667 32.0003C16.1041 32.0003 12 27.8963 12 22.8337C12 17.771 16.1041 13.667 21.1667 13.667" stroke="#666A6F" stroke-width="1.5" stroke-linecap="round" stroke-linejoin="round"/>
<path d="M16.5166 24.2432C17.2217 26.7816 20.0422 28.3329 22.5807 27.6278C24.132 27.0637 25.4012 25.7944 25.8243 24.2432" stroke="#666A6F" stroke-width="1.5" stroke-linecap="round" stroke-linejoin="round"/>
<path d="M18.0633 20.5788C17.9075 20.5788 17.7812 20.4525 17.7812 20.2967C17.7812 20.1409 17.9075 20.0146 18.0633 20.0146" stroke="#666A6F" stroke-width="1.5" stroke-linecap="round" stroke-linejoin="round"/>
<path d="M18.0645 20.5788C18.2202 20.5788 18.3465 20.4525 18.3465 20.2967C18.3465 20.1409 18.2202 20.0146 18.0645 20.0146" stroke="#666A6F" stroke-width="1.5" stroke-linecap="round" stroke-linejoin="round"/>
<path d="M24.2684 20.5788C24.1126 20.5788 23.9863 20.4525 23.9863 20.2967C23.9863 20.1409 24.1126 20.0146 24.2684 20.0146" stroke="#666A6F" stroke-width="1.5" stroke-linecap="round" stroke-linejoin="round"/>
<path d="M24.2695 20.5788C24.4253 20.5788 24.5516 20.4525 24.5516 20.2967C24.5516 20.1409 24.4253 20.0146 24.2695 20.0146" stroke="#666A6F" stroke-width="1.5" stroke-linecap="round" stroke-linejoin="round"/>
<path d="M28.667 12V19.0833" stroke="#666A6F" stroke-width="1.5" stroke-linecap="round"/>
<path d="M25.333 15.333H31.9997" stroke="#666A6F" stroke-width="1.5" stroke-linecap="round"/>
</svg>
