<svg width="20" height="21" viewBox="0 0 20 21" fill="none" xmlns="http://www.w3.org/2000/svg">
<path d="M18.25 10.4492C18.25 5.89287 14.5564 2.19922 10 2.19922C5.44365 2.19922 1.75 5.89287 1.75 10.4492C1.75 15.0056 5.44365 18.6992 10 18.6992C14.5564 18.6992 18.25 15.0056 18.25 10.4492ZM19.75 10.4492C19.75 15.834 15.3848 20.1992 10 20.1992C4.61523 20.1992 0.25 15.834 0.25 10.4492C0.25 5.06445 4.61523 0.699219 10 0.699219C15.3848 0.699219 19.75 5.06445 19.75 10.4492Z" fill="#B91C1C"/>
<path d="M9.25 12.2732V5.39034C9.25 4.97612 9.58579 4.64034 10 4.64034C10.4142 4.64034 10.75 4.97612 10.75 5.39034V12.2732C10.7498 12.6872 10.4141 13.0232 10 13.0232C9.58594 13.0232 9.25025 12.6872 9.25 12.2732Z" fill="#B91C1C"/>
<path d="M9 15.5075V15.4967C9 14.9444 9.44771 14.4967 10 14.4967C10.5523 14.4967 11 14.9444 11 15.4967V15.5075L10.9951 15.61C10.9437 16.1141 10.5176 16.5075 10 16.5075C9.48238 16.5075 9.05629 16.1141 9.00488 15.61L9 15.5075Z" fill="#B91C1C"/>
</svg>
