<svg width="44" height="44" viewBox="0 0 44 44" fill="none" xmlns="http://www.w3.org/2000/svg">
<g filter="url(#filter0_i_3035_4200)">
<path d="M4 8C4 5.79086 5.79086 4 8 4H44V40H8C5.79086 40 4 38.2091 4 36V8Z" fill="#C8E9E9"/>
<path d="M28.765 13.25H12.6881C11.8809 13.25 11.2266 13.9044 11.2266 14.7115V30.7885C11.2266 31.5956 11.8809 32.25 12.6881 32.25H28.765C29.5722 32.25 30.2266 31.5956 30.2266 30.7885V14.7115C30.2266 13.9044 29.5722 13.25 28.765 13.25Z" fill="#666A6F"/>
<path d="M29.4766 14.7119C29.4766 14.3189 29.1576 14 28.7646 14H12.6885C12.2955 14 11.9766 14.3189 11.9766 14.7119V30.7881C11.9766 31.1811 12.2955 31.5 12.6885 31.5H28.7646C29.1576 31.5 29.4766 31.1811 29.4766 30.7881V14.7119ZM30.9766 30.7881C30.9766 32.0095 29.986 33 28.7646 33H12.6885C11.4671 33 10.4766 32.0095 10.4766 30.7881V14.7119C10.4766 13.4905 11.4671 12.5 12.6885 12.5H28.7646C29.986 12.5 30.9766 13.4905 30.9766 14.7119V30.7881Z" fill="#666A6F"/>
<path d="M20.7179 16.4688C20.9135 16.4688 21.106 16.512 21.2814 16.5947L21.4503 16.6904L21.6037 16.8096C21.7456 16.938 21.8576 17.0968 21.9328 17.2744H21.9337L24.7775 23.9131C24.7817 23.9224 24.7854 23.9319 24.7892 23.9414L26.5226 27.9873C26.6857 28.3679 26.5096 28.8085 26.1291 28.9717C25.7483 29.1348 25.3068 28.9588 25.1437 28.5781L23.5978 24.9697H17.838L16.2921 28.5781C16.129 28.9587 15.6884 29.1346 15.3078 28.9717C14.927 28.8086 14.7502 28.368 14.9132 27.9873L16.6457 23.9404C16.6494 23.9312 16.6533 23.9221 16.6574 23.9131L19.5021 17.2744C19.6026 17.0368 19.7708 16.8337 19.9855 16.6904L20.1554 16.5947C20.3306 16.5122 20.5226 16.4688 20.7179 16.4688ZM18.4806 23.4697H22.9552L20.7179 18.2451L18.4806 23.4697Z" fill="white"/>
<path d="M38.5186 18.75L34.6591 22.4559C34.5588 22.5523 34.5564 22.712 34.6538 22.8113L38.5186 26.75" stroke="#666A6F" stroke-width="1.25" stroke-linecap="round" stroke-linejoin="round"/>
</g>
<defs>
<filter id="filter0_i_3035_4200" x="4" y="4" width="40" height="36" filterUnits="userSpaceOnUse" color-interpolation-filters="sRGB">
<feFlood flood-opacity="0" result="BackgroundImageFix"/>
<feBlend mode="normal" in="SourceGraphic" in2="BackgroundImageFix" result="shape"/>
<feColorMatrix in="SourceAlpha" type="matrix" values="0 0 0 0 0 0 0 0 0 0 0 0 0 0 0 0 0 0 127 0" result="hardAlpha"/>
<feMorphology radius="1" operator="erode" in="SourceAlpha" result="effect1_innerShadow_3035_4200"/>
<feOffset/>
<feGaussianBlur stdDeviation="2"/>
<feComposite in2="hardAlpha" operator="arithmetic" k2="-1" k3="1"/>
<feColorMatrix type="matrix" values="0 0 0 0 0 0 0 0 0 0.486275 0 0 0 0 0.533333 0 0 0 0.22 0"/>
<feBlend mode="normal" in2="shape" result="effect1_innerShadow_3035_4200"/>
</filter>
</defs>
</svg>
