<svg width="31" height="21" viewBox="0 0 31 21" fill="none" xmlns="http://www.w3.org/2000/svg">
<path d="M20.2885 0.75H4.21154C3.40435 0.75 2.75 1.40435 2.75 2.21154V18.2885C2.75 19.0956 3.40435 19.75 4.21154 19.75H20.2885C21.0956 19.75 21.75 19.0956 21.75 18.2885V2.21154C21.75 1.40435 21.0956 0.75 20.2885 0.75Z" fill="#666A6F"/>
<path d="M21 2.21191C21 1.81894 20.6811 1.5 20.2881 1.5H4.21191C3.81894 1.5 3.5 1.81894 3.5 2.21191V18.2881C3.5 18.6811 3.81894 19 4.21191 19H20.2881C20.6811 19 21 18.6811 21 18.2881V2.21191ZM22.5 18.2881C22.5 19.5095 21.5095 20.5 20.2881 20.5H4.21191C2.99051 20.5 2 19.5095 2 18.2881V2.21191C2 0.990515 2.99052 0 4.21191 0H20.2881C21.5095 0 22.5 0.990514 22.5 2.21191V18.2881Z" fill="#666A6F"/>
<path d="M12.2414 3.96875C12.4369 3.96875 12.6294 4.01197 12.8048 4.09473L12.9738 4.19043L13.1271 4.30957C13.2691 4.43798 13.381 4.59679 13.4562 4.77441H13.4572L16.3009 11.4131C16.3051 11.4224 16.3088 11.4319 16.3126 11.4414L18.046 15.4873C18.2091 15.8679 18.033 16.3085 17.6525 16.4717C17.2718 16.6348 16.8303 16.4588 16.6671 16.0781L15.1212 12.4697H9.36148L7.81558 16.0781C7.65245 16.4587 7.21185 16.6346 6.8312 16.4717C6.45047 16.3086 6.2736 15.868 6.43667 15.4873L8.16909 11.4404C8.17279 11.4312 8.17676 11.4221 8.18081 11.4131L11.0255 4.77441C11.1261 4.53676 11.2942 4.33366 11.5089 4.19043L11.6789 4.09473C11.8541 4.01216 12.0461 3.96877 12.2414 3.96875ZM10.0041 10.9697H14.4787L12.2414 5.74512L10.0041 10.9697Z" fill="white"/>
<path d="M30.042 6.25L26.1826 9.95589C26.0822 10.0523 26.0798 10.212 26.1773 10.3113L30.042 14.25" stroke="#666A6F" stroke-width="1.25" stroke-linecap="round" stroke-linejoin="round"/>
</svg>
