<svg width="44" height="44" viewBox="0 0 44 44" fill="none" xmlns="http://www.w3.org/2000/svg">
<path d="M14.1141 27.5246L18.7033 16.8115C18.7466 16.7077 18.8197 16.6189 18.9133 16.5565C19.0069 16.4941 19.117 16.4608 19.2295 16.4608C19.342 16.4608 19.452 16.4941 19.5457 16.5565C19.6393 16.6189 19.7124 16.7077 19.7556 16.8115L24.3449 27.5246M15.8533 23.4615H22.6056M11.191 12.5H27.268C28.0751 12.5 28.7295 13.1544 28.7295 13.9615V30.0385C28.7295 30.8456 28.0751 31.5 27.268 31.5H11.191C10.3838 31.5 9.72949 30.8456 9.72949 30.0385V13.9615C9.72949 13.1544 10.3838 12.5 11.191 12.5Z" stroke="#616161" stroke-width="1.5" stroke-linecap="round" stroke-linejoin="round"/>
<path d="M32.2295 26L36.0889 22.2941C36.1893 22.1977 36.1916 22.038 36.0942 21.9387L32.2295 18" stroke="#666A6F" stroke-width="1.25" stroke-linecap="round" stroke-linejoin="round"/>
</svg>
