<svg width="18" height="20" viewBox="0 0 18 20" fill="none" xmlns="http://www.w3.org/2000/svg">
<path fill-rule="evenodd" clip-rule="evenodd" d="M7.882 2.03857L2.02488 7.05898C1.64413 7.38533 1.42499 7.86176 1.42499 8.3633V16.6571C1.42499 17.6059 2.19409 18.375 3.14285 18.375H4.8607V11.9714C4.8607 10.9793 5.66501 10.175 6.65713 10.175H11.3429C12.335 10.175 13.1393 10.9793 13.1393 11.9714V18.375H14.8571C15.8059 18.375 16.575 17.6059 16.575 16.6571V8.3633C16.575 7.86174 16.3559 7.38533 15.9751 7.05898L10.118 2.03857C9.47464 1.48715 8.52534 1.48715 7.882 2.03857ZM11.8893 18.375V11.9714C11.8893 11.6696 11.6447 11.425 11.3429 11.425H6.65713C6.35535 11.425 6.1107 11.6696 6.1107 11.9714V18.375H11.8893ZM7.06852 1.08948C8.17998 0.136839 9.82001 0.136839 10.9315 1.08948L16.7886 6.1099C17.4464 6.67375 17.825 7.49688 17.825 8.3633V16.6571C17.825 18.2963 16.4963 19.625 14.8571 19.625H3.14285C1.50375 19.625 0.174988 18.2963 0.174988 16.6571V8.3633C0.174988 7.49686 0.55358 6.67374 1.21139 6.10991L7.06852 1.08948Z" fill="#414141"/>
</svg>
